<svg width="142" height="48" viewBox="0 0 142 48" fill="none" xmlns="http://www.w3.org/2000/svg">
<g clip-path="url(#clip0_1766_4402)">
<path d="M134.141 43.7331C132.829 44.4829 131.345 44.89 129.846 44.89C126.769 44.89 123.911 43.2332 122.365 40.5766L117.507 32.1357L125.879 17.6295C126.472 16.5987 126.91 15.4883 127.16 14.3624L137.298 31.9322C139.671 36.0597 138.251 41.3419 134.143 43.7331H134.141ZM109.026 40.5766C107.496 43.2332 104.622 44.89 101.545 44.89C100.046 44.89 98.5615 44.4829 97.2498 43.7331C93.1266 41.3574 91.7198 36.073 94.0955 31.9476L108.23 7.45438C109.387 5.45475 111.245 4.03023 113.461 3.43742C114.211 3.23392 114.961 3.14101 115.711 3.14101C117.211 3.14101 118.679 3.53253 120.007 4.29788C121.334 5.06322 122.411 6.15816 123.161 7.45438L123.254 7.62691C123.581 8.22193 123.831 8.8612 124.019 9.54912C124.612 11.7677 124.316 14.097 123.161 16.0988L109.026 40.5766ZM139.999 30.386L126.003 6.1117C124.988 4.23594 123.473 2.67207 121.568 1.57935C118.85 0.0154829 115.68 -0.404793 112.65 0.407004C109.619 1.2188 107.089 3.15871 105.512 5.87723L91.377 30.3705C88.143 35.9823 90.0652 43.1867 95.6726 46.4229C97.4533 47.4536 99.4839 48.0022 101.53 48.0022C105.715 48.0022 109.621 45.7504 111.714 42.125L115.682 35.2634L119.65 42.125C121.743 45.7504 125.647 48.0022 129.834 48.0022C131.881 48.0022 133.911 47.4558 135.692 46.4229C141.315 43.2022 143.235 35.9978 140.003 30.386H139.999Z" fill="#1469D2"/>
<path d="M93.5049 12.3672C93.3324 14.6654 92.2861 16.758 90.5519 18.2754L82.5224 25.2299V23.9956C82.5224 20.5891 81.0382 17.353 78.4612 15.1189L73.1503 10.5246L79.2597 5.2424C82.852 2.13235 88.3045 2.52387 91.4301 6.11834C92.9298 7.83705 93.6797 10.0734 93.5071 12.3694L93.5049 12.3672ZM79.3969 36.2323C79.3969 40.9836 75.5215 44.859 70.7724 44.859C66.0233 44.859 62.1479 40.9836 62.1479 36.2323V27.9329L50.9928 18.2754C47.4006 15.1653 47.0091 9.7106 50.1169 6.10065C51.8201 4.13199 54.2267 3.13217 56.6467 3.13217C58.6463 3.13217 60.6614 3.8201 62.2872 5.22692L76.4262 17.4791C78.3174 19.1204 79.4102 21.496 79.4102 23.9956V36.2323H79.3947H79.3969ZM93.788 4.05235C89.5543 -0.838338 82.1176 -1.38691 77.2114 2.86452L70.7746 8.44314L64.3377 2.86452C59.447 -1.37143 52.0103 -0.838338 47.7611 4.05235C43.5274 8.94304 44.0583 16.3842 48.949 20.6334L59.0268 29.3707V36.2477C59.0268 42.7333 64.2913 48 70.7746 48C77.2579 48 82.5224 42.7333 82.5224 36.2477V29.3707L92.6002 20.6334C94.9759 18.5851 96.396 15.725 96.6304 12.584C96.8649 9.44295 95.8496 6.42581 93.788 4.05014V4.05235Z" fill="#1469D2"/>
<path d="M44.3326 43.7177C43.0209 44.4675 41.5366 44.8745 40.0369 44.8745C36.96 44.8745 34.1 43.2177 32.5538 40.5612L27.6941 32.1379L36.0686 17.6362C36.6614 16.6054 37.0994 15.495 37.3494 14.3691L47.4891 31.9344C49.8647 36.0443 48.4424 41.3265 44.3326 43.7177ZM19.2111 40.5612C17.6804 43.2177 14.8048 44.8745 11.728 44.8745C10.2283 44.8745 8.74401 44.4675 7.43231 43.7177C3.30696 41.342 1.90235 36.0598 4.27581 31.9344L18.4126 7.44558C20.0052 4.6806 22.9118 3.13221 25.8957 3.13221C27.3645 3.13221 28.8332 3.50825 30.1914 4.28908C31.5186 5.05442 32.598 6.14936 33.3479 7.44558L33.4408 7.61811C33.7682 8.21092 34.0181 8.8524 34.2061 9.54032C34.7989 11.7589 34.5025 14.0882 33.3479 16.0878L19.2089 40.5612H19.2111ZM50.1921 30.3728L36.1925 6.1029C35.1772 4.22714 33.662 2.66548 31.7553 1.57055C26.1457 -1.66336 18.9435 0.258848 15.7095 5.86843L1.57056 30.3728C-1.66336 35.9824 0.258851 43.1868 5.86622 46.4229C7.64687 47.4537 9.67747 48.0023 11.7258 48.0023C15.913 48.0023 19.8194 45.7527 21.9119 42.1272L25.8802 35.2657L29.8485 42.1272C31.9411 45.7527 35.8474 48.0023 40.0347 48.0023C42.0808 48.0023 44.1114 47.4559 45.8942 46.4229C51.5038 43.189 53.4238 35.9846 50.1899 30.3728H50.1921Z" fill="#1469D2"/>
</g>
<defs>
<clipPath id="clip0_1766_4402">
<rect width="141.567" height="48" fill="white"/>
</clipPath>
</defs>
</svg>
